<svg xmlns="http://www.w3.org/2000/svg" xml:space="preserve" id="instagram" width="140" height="140" x="0" y="0" version="1.1">
  <path d="M129.644 100.736c0 16.597-13.454 30.052-30.052 30.052H38.119c-16.6 0-30.052-13.455-30.052-30.052V39.264c0-16.598 13.452-30.052 30.052-30.052h61.473c16.598 0 30.052 13.455 30.052 30.052v61.472z" style="fill:#ba30ce"></path>
  <path d="M99.592 9.212H38.119c-16.6 0-30.052 13.455-30.052 30.052V70h121.576V39.264c.001-16.597-13.454-30.052-30.051-30.052z" style="fill:#ff0da9"></path>
  <path d="M129.644 100.736c0 16.597-13.454 30.052-30.052 30.052H38.119c-16.6 0-30.052-13.455-30.052-30.052V39.264c0-16.598 13.452-30.052 30.052-30.052h61.473c16.598 0 30.052 13.455 30.052 30.052v61.472z" style="fill:none;stroke:#33363a;stroke-width:3;stroke-linecap:round;stroke-linejoin:round;stroke-miterlimit:10"></path>
  <path d="M92.284 23.665c12.651 0 22.906 10.255 22.906 22.906v46.857c0 12.653-10.255 22.907-22.906 22.907H45.427c-12.651 0-22.906-10.253-22.906-22.907V46.571c0-12.651 10.255-22.906 22.906-22.906h46.857z" style="fill:#ba30ce"></path>
  <path d="M22.521 46.571v46.857c0 12.653 10.255 22.907 22.906 22.907h23.429v-92.67H45.427c-12.652 0-22.906 10.255-22.906 22.906z" style="fill:#ff0da9"></path>
  <path d="M92.284 23.665c12.651 0 22.906 10.255 22.906 22.906v46.857c0 12.653-10.255 22.907-22.906 22.907H45.427c-12.651 0-22.906-10.253-22.906-22.907V46.571c0-12.651 10.255-22.906 22.906-22.906h46.857z" style="fill:none;stroke:#33363a;stroke-width:3;stroke-linecap:round;stroke-linejoin:round;stroke-miterlimit:10"></path>
  <path d="M68.855 42.468c15.205 0 27.535 12.325 27.535 27.53 0 15.209-12.33 27.534-27.535 27.534S41.32 85.207 41.32 69.998c0-15.206 12.33-27.53 27.535-27.53z" style="fill:#fff"></path>
  <path d="M41.32 69.998c0-15.206 12.33-27.53 27.535-27.53S96.39 54.793 96.39 69.998" style="fill:#c7d5e0"></path>
  <path d="M68.855 42.468c15.205 0 27.535 12.325 27.535 27.53 0 15.209-12.33 27.534-27.535 27.534S41.32 85.207 41.32 69.998c0-15.206 12.33-27.53 27.535-27.53z" style="fill:none;stroke:#33363a;stroke-width:3;stroke-linecap:round;stroke-linejoin:round;stroke-miterlimit:10"></path>
  <circle cx="68.855" cy="70" r="18.367" style="fill:#fff"></circle>
  <path d="M68.856 51.631C79 51.631 87.222 59.855 87.222 70c0 10.143-8.222 18.369-18.365 18.369" style="fill:#c7d5e0"></path>
  <circle cx="68.855" cy="70" r="18.367" style="fill:none;stroke:#33363a;stroke-width:3;stroke-linecap:round;stroke-linejoin:round;stroke-miterlimit:10"></circle>
  <circle cx="98.063" cy="42.071" r="4.138" style="fill:#c7d5e0"></circle>
  <path d="M98.064 46.21a4.14 4.14 0 0 1 0-8.278" style="fill:#fff"></path>
  <circle cx="98.063" cy="42.071" r="4.138" style="fill:none;stroke:#33363a;stroke-width:3;stroke-linecap:round;stroke-linejoin:round;stroke-miterlimit:10"></circle>
  <path d="M131.933 130.788h-5.893M114.447 130.788H63.344M120.736 130.788h-1.099" style="fill:none;stroke:#33363a;stroke-width:3;stroke-linecap:round;stroke-linejoin:round;stroke-miterlimit:10"></path>
</svg>
